<?xml version="1.0" encoding="utf-8"?>
<!-- Generator: Adobe Illustrator 14.0.0, SVG Export Plug-In . SVG Version: 6.00 Build 43363)  -->
<!DOCTYPE svg PUBLIC "-//W3C//DTD SVG 1.1//EN" "http://www.w3.org/Graphics/SVG/1.1/DTD/svg11.dtd">
<svg version="1.1" id="Calque_1" xmlns="http://www.w3.org/2000/svg" xmlns:xlink="http://www.w3.org/1999/xlink" x="0px" y="0px"
	 width="70px" height="80px" viewBox="0 0 70 80" enable-background="new 0 0 70 80" xml:space="preserve">
<g>
	<path fill="#2C2B2C" d="M69.063,73.807c0,3.254-2.64,5.894-5.895,5.894H9.086c-3.254,0-5.895-2.64-5.895-5.894V8.4
		c0-3.255,2.641-5.893,5.895-5.893H63.17c3.255,0,5.895,2.637,5.895,5.893L69.063,73.807L69.063,73.807z"/>
	<path fill="#E7F1E3" stroke="#8398A0" d="M67.269,72.427c0,3.257-2.642,5.896-5.896,5.896H7.29c-3.255,0-5.894-2.639-5.894-5.896
		V7.022c0-3.255,2.639-5.893,5.894-5.893h54.084c3.254,0,5.896,2.638,5.896,5.893V72.427z"/>
</g>
<rect x="8.092" y="19.125" fill="#FFFFFF" width="12.968" height="19.826"/>
<rect x="51.966" y="27.521" fill="#FFFFFF" width="9.2" height="13.183"/>
<rect x="17.13" y="7.403" fill="#FFFFFF" width="37.272" height="22.813"/>
<g>
	<g>
		<g id="Layer_20_51_">
			<g>
				<polygon points="23.98,34.333 31.8,34.333 31.8,36.136 23.98,36.136 23.98,37.623 48.569,37.623 48.569,36.136 39.456,36.136 
					39.456,34.333 49.592,34.333 49.592,30.213 23.98,30.213 				"/>
				<polygon points="17.173,9.555 54.446,9.555 54.446,24.455 57.64,24.455 57.64,6.361 13.979,6.361 13.979,16.339 17.173,16.339 
									"/>
				<path d="M6.278,42.35h16.674V17.34H6.278V42.35z M14.968,41.094c-0.442,0-0.804-0.357-0.804-0.8c0-0.443,0.36-0.803,0.804-0.803
					c0.444,0,0.804,0.358,0.804,0.803C15.771,40.736,15.411,41.094,14.968,41.094z M8.69,19.752h11.853l-0.001,18.452H8.69V19.752z"
					/>
				<path d="M50.723,25.415V43.02h11.615V25.415H50.723z M56.768,26.142c0.139,0,0.252,0.117,0.252,0.255
					c0,0.139-0.113,0.254-0.252,0.254c-0.143,0-0.259-0.116-0.259-0.254S56.625,26.142,56.768,26.142z M55.258,26.988h3.013v0.243
					h-3.013V26.988z M56.667,42.261c-0.335,0-0.603-0.272-0.603-0.605c0-0.33,0.268-0.601,0.603-0.601
					c0.331,0,0.602,0.271,0.602,0.601C57.268,41.986,56.998,42.261,56.667,42.261z M60.658,40.188
					c-2.718,0.014-6.906,0.026-8.252,0.013V28.097l8.252-0.002V40.188z"/>
			</g>
		</g>
	</g>
	<g>
		<path d="M24.799,13.076l1.752-0.007c1.212-0.005,2.138,0.335,2.771,1.025c0.633,0.687,0.952,1.695,0.958,3.024
			c0.005,1.006-0.148,1.819-0.457,2.438c-0.309,0.62-0.742,1.069-1.3,1.348c-0.558,0.279-1.175,0.419-1.851,0.422l-1.839,0.007
			L24.799,13.076z M26.682,14.825l0.021,4.739c0.569-0.052,0.971-0.255,1.205-0.609c0.234-0.354,0.348-0.935,0.344-1.743
			c-0.002-0.479-0.044-0.883-0.127-1.215c-0.083-0.332-0.208-0.587-0.373-0.766c-0.163-0.179-0.322-0.288-0.478-0.329
			C27.119,14.862,26.921,14.836,26.682,14.825z"/>
		<path d="M31.594,13.048l1.875-0.008l0.035,8.258l-1.875,0.008L31.594,13.048z"/>
		<path d="M35.301,13.033l1.752-0.007c1.214-0.005,2.139,0.337,2.771,1.025c0.634,0.687,0.952,1.695,0.959,3.023
			c0.004,1.006-0.148,1.819-0.458,2.439c-0.309,0.619-0.742,1.069-1.3,1.348c-0.56,0.278-1.176,0.419-1.852,0.423l-1.839,0.007
			L35.301,13.033z M37.184,14.781l0.021,4.739c0.567-0.052,0.971-0.255,1.203-0.609c0.234-0.354,0.349-0.935,0.345-1.742
			c-0.002-0.479-0.044-0.883-0.128-1.215c-0.084-0.333-0.208-0.588-0.373-0.766c-0.162-0.179-0.322-0.289-0.478-0.329
			C37.621,14.818,37.424,14.792,37.184,14.781z"/>
		<path d="M42.029,13.004l3.794-0.016l0.008,1.756l-1.919,0.008l0.008,1.522l1.663-0.007l0.008,1.714l-1.664,0.007l0.006,1.503
			l1.931-0.008l0.008,1.763l-3.807,0.016L42.029,13.004z"/>
		<path d="M46.719,12.984l2.08-0.008c0.539,1.292,0.833,2.033,0.882,2.223h0.025c0.007-0.058,0.085-0.268,0.232-0.632l0.624-1.599
			l2.081-0.008l-1.904,3.948l2.099,4.309l-2.08,0.009c-0.669-1.552-1.021-2.388-1.049-2.508h-0.024
			c-0.068,0.265-0.16,0.527-0.276,0.787l-0.754,1.729l-2.048,0.009l2.017-4.302L46.719,12.984z"/>
	</g>
</g>
<g>
	<g>
		<polygon points="10.51,59.11 8.791,51.242 5.939,51.242 5.939,62.766 7.715,62.766 7.715,53.687 9.585,62.766 11.42,62.766 
			13.304,53.687 13.304,62.766 15.08,62.766 15.08,51.242 12.214,51.242 		"/>
		<path d="M15.205,62.891h-2.026v-7.986l-1.657,7.986H9.483L7.84,54.913v7.978H5.814V51.117h3.078l1.617,7.405l1.604-7.405h3.092
			V62.891L15.205,62.891z M13.429,62.641h1.526V51.367h-2.641l-1.683,7.77h-0.244l-1.697-7.77H6.064v11.273H7.59v-8.954l0.248-0.025
			l1.849,8.979h1.632l1.863-8.979l0.248,0.025V62.641L13.429,62.641z"/>
	</g>
	<g>
		<path d="M21.156,51.046c-0.933,0-1.727,0.218-2.381,0.652c-0.655,0.435-1.186,1.097-1.592,1.984
			c-0.406,0.889-0.609,2.02-0.609,3.392c0,1.893,0.451,3.381,1.352,4.465c0.791,0.949,1.871,1.423,3.239,1.423
			c1.357,0,2.431-0.479,3.223-1.438c0.901-1.085,1.352-2.591,1.352-4.52c0-1.907-0.426-3.377-1.277-4.41
			C23.61,51.562,22.508,51.046,21.156,51.046z M23.034,59.987c-0.494,0.657-1.116,0.986-1.866,0.986
			c-0.746,0-1.37-0.332-1.874-0.994c-0.503-0.663-0.755-1.657-0.755-2.983c0-1.352,0.244-2.351,0.732-2.995
			c0.488-0.645,1.121-0.967,1.897-0.967c0.776,0,1.405,0.32,1.885,0.959c0.48,0.64,0.72,1.627,0.72,2.964
			C23.774,58.319,23.527,59.329,23.034,59.987z"/>
		<path d="M21.164,63.087c-1.401,0-2.523-0.494-3.335-1.468c-0.916-1.103-1.381-2.631-1.381-4.545c0-1.384,0.209-2.543,0.621-3.443
			c0.414-0.906,0.965-1.591,1.636-2.037c0.673-0.446,1.498-0.673,2.451-0.673c1.385,0,2.53,0.536,3.402,1.594
			c0.867,1.051,1.306,2.562,1.306,4.489c0,1.949-0.464,3.496-1.381,4.6C23.671,62.588,22.554,63.087,21.164,63.087L21.164,63.087z
			 M21.156,51.171c-0.903,0-1.681,0.213-2.312,0.632c-0.632,0.419-1.153,1.069-1.547,1.932c-0.397,0.868-0.598,1.992-0.598,3.34
			c0,1.854,0.445,3.329,1.323,4.385c0.762,0.914,1.819,1.378,3.143,1.378c1.312,0,2.363-0.469,3.126-1.393
			c0.878-1.058,1.323-2.552,1.323-4.44c0-1.868-0.42-3.325-1.249-4.331C23.543,51.677,22.463,51.171,21.156,51.171L21.156,51.171z
			 M21.168,61.099c-0.783,0-1.447-0.351-1.974-1.043c-0.518-0.683-0.781-1.712-0.781-3.06c0-1.374,0.255-2.406,0.757-3.07
			c0.511-0.675,1.183-1.017,1.997-1.017c0.813,0,1.481,0.34,1.985,1.009c0.495,0.659,0.745,1.682,0.745,3.039
			c0,1.383-0.257,2.428-0.765,3.105C22.617,60.75,21.956,61.099,21.168,61.099L21.168,61.099z M21.168,53.159
			c-0.742,0-1.33,0.3-1.798,0.917c-0.469,0.62-0.707,1.603-0.707,2.92c0,1.292,0.246,2.27,0.73,2.908
			c0.484,0.636,1.064,0.944,1.774,0.944c0.715,0,1.292-0.307,1.766-0.937c0.474-0.633,0.715-1.627,0.715-2.955
			c0-1.302-0.234-2.274-0.695-2.889C22.493,53.457,21.909,53.159,21.168,53.159L21.168,53.159z"/>
	</g>
	<g>
		<path d="M31.43,51.046c-0.933,0-1.727,0.218-2.381,0.652c-0.655,0.435-1.186,1.097-1.592,1.984
			c-0.406,0.889-0.609,2.02-0.609,3.392c0,1.893,0.451,3.381,1.352,4.465c0.791,0.949,1.871,1.423,3.239,1.423
			c1.357,0,2.431-0.479,3.223-1.438c0.901-1.085,1.352-2.591,1.352-4.52c0-1.907-0.426-3.377-1.277-4.41
			C33.884,51.562,32.782,51.046,31.43,51.046z M33.308,59.987c-0.494,0.657-1.116,0.986-1.866,0.986
			c-0.746,0-1.37-0.332-1.874-0.994c-0.503-0.663-0.755-1.657-0.755-2.983c0-1.352,0.244-2.351,0.732-2.995
			c0.488-0.645,1.121-0.967,1.897-0.967c0.776,0,1.405,0.32,1.885,0.959c0.48,0.64,0.72,1.627,0.72,2.964
			C34.048,58.319,33.801,59.329,33.308,59.987z"/>
		<path d="M31.438,63.087c-1.401,0-2.523-0.494-3.335-1.468c-0.916-1.103-1.381-2.631-1.381-4.545c0-1.384,0.209-2.543,0.621-3.443
			c0.414-0.906,0.965-1.591,1.636-2.037c0.673-0.446,1.498-0.673,2.451-0.673c1.385,0,2.53,0.536,3.402,1.594
			c0.866,1.051,1.306,2.562,1.306,4.489c0,1.949-0.465,3.497-1.38,4.6C33.945,62.588,32.828,63.087,31.438,63.087L31.438,63.087z
			 M31.43,51.171c-0.903,0-1.681,0.213-2.312,0.632c-0.632,0.419-1.153,1.069-1.547,1.932c-0.397,0.868-0.598,1.992-0.598,3.34
			c0,1.854,0.445,3.329,1.323,4.385c0.762,0.914,1.819,1.378,3.143,1.378c1.312,0,2.363-0.469,3.126-1.393
			c0.878-1.058,1.323-2.551,1.323-4.44c0-1.868-0.42-3.325-1.249-4.331C33.817,51.677,32.737,51.171,31.43,51.171L31.43,51.171z
			 M31.442,61.099c-0.783,0-1.447-0.351-1.974-1.043c-0.518-0.683-0.781-1.712-0.781-3.06c0-1.374,0.255-2.406,0.757-3.07
			c0.511-0.675,1.183-1.017,1.997-1.017c0.813,0,1.481,0.34,1.985,1.009c0.495,0.659,0.745,1.682,0.745,3.039
			c0,1.383-0.257,2.428-0.765,3.105C32.891,60.75,32.23,61.099,31.442,61.099L31.442,61.099z M31.442,53.159
			c-0.742,0-1.33,0.3-1.798,0.917c-0.469,0.62-0.707,1.603-0.707,2.92c0,1.292,0.246,2.27,0.73,2.908
			c0.484,0.636,1.064,0.944,1.774,0.944c0.715,0,1.292-0.307,1.766-0.937c0.474-0.633,0.715-1.627,0.715-2.955
			c0-1.302-0.234-2.274-0.695-2.889C32.767,53.457,32.183,53.159,31.442,53.159L31.442,53.159z"/>
	</g>
	<g>
		<path d="M44.205,52.531c-0.377-0.466-0.789-0.798-1.237-0.994c-0.447-0.196-1.11-0.295-1.99-0.295h-3.479v11.523h3.581
			c0.77,0,1.398-0.108,1.889-0.326c0.489-0.218,0.906-0.541,1.252-0.971s0.631-1.013,0.856-1.749
			c0.225-0.736,0.337-1.603,0.337-2.598c0-1.105-0.107-2.031-0.321-2.775C44.878,53.604,44.582,52.998,44.205,52.531z
			 M43.276,59.018c-0.115,0.503-0.261,0.871-0.437,1.104c-0.176,0.233-0.4,0.407-0.676,0.522s-0.719,0.173-1.332,0.173h-1.431
			v-7.625h0.864c0.766,0,1.281,0.034,1.549,0.103c0.356,0.089,0.659,0.274,0.908,0.558c0.248,0.282,0.432,0.67,0.55,1.162
			s0.177,1.164,0.177,2.018C43.449,57.854,43.391,58.516,43.276,59.018z"/>
		<path d="M41.08,62.891h-3.706V51.117h3.604c0.893,0,1.579,0.103,2.04,0.306c0.464,0.203,0.896,0.549,1.285,1.029
			c0.385,0.478,0.691,1.104,0.91,1.859c0.217,0.754,0.326,1.699,0.326,2.811c0,1.003-0.115,1.89-0.343,2.634
			c-0.229,0.749-0.524,1.352-0.878,1.791c-0.356,0.443-0.794,0.782-1.299,1.007C42.516,62.777,41.863,62.891,41.08,62.891
			L41.08,62.891z M37.624,62.641h3.456c0.748,0,1.367-0.106,1.838-0.315c0.469-0.209,0.874-0.523,1.205-0.935
			c0.334-0.415,0.614-0.989,0.835-1.707c0.22-0.722,0.331-1.583,0.331-2.562c0-1.088-0.106-2.011-0.316-2.741
			c-0.209-0.724-0.5-1.319-0.865-1.771c-0.363-0.448-0.764-0.771-1.189-0.958c-0.431-0.188-1.083-0.284-1.94-0.284h-3.354V62.641
			L37.624,62.641z M40.832,60.941h-1.556v-7.875h0.989c0.782,0,1.3,0.035,1.58,0.106c0.379,0.095,0.706,0.295,0.971,0.596
			c0.261,0.297,0.455,0.706,0.577,1.216c0.12,0.498,0.181,1.187,0.181,2.047c0,0.828-0.06,1.506-0.176,2.015
			c-0.121,0.525-0.271,0.901-0.459,1.15c-0.188,0.25-0.433,0.439-0.728,0.563C41.919,60.882,41.467,60.941,40.832,60.941
			L40.832,60.941z M39.526,60.691h1.306c0.593,0,1.025-0.055,1.284-0.163c0.256-0.107,0.46-0.265,0.624-0.482
			c0.164-0.217,0.304-0.572,0.414-1.057c0.113-0.49,0.17-1.149,0.17-1.958c0-0.841-0.059-1.51-0.173-1.988
			c-0.113-0.47-0.289-0.843-0.522-1.108c-0.23-0.263-0.515-0.438-0.845-0.52c-0.257-0.065-0.768-0.099-1.519-0.099h-0.739V60.691
			L39.526,60.691z"/>
	</g>
	<g>
		<polygon points="48.99,51.337 47.088,51.337 47.088,62.766 53.738,62.766 53.738,60.816 48.99,60.816 		"/>
		<path d="M53.863,62.891h-6.9V51.212h2.152v9.479h4.748V62.891L53.863,62.891z M47.213,62.641h6.4v-1.699h-4.748v-9.479h-1.652
			V62.641L47.213,62.641z"/>
	</g>
	<g>
		<polygon points="57.008,60.816 57.008,57.688 61.756,57.688 61.756,55.746 57.008,55.746 57.008,53.191 62.117,53.191 
			62.117,51.242 55.105,51.242 55.105,62.766 62.29,62.766 62.29,60.816 		"/>
		<path d="M62.415,62.891H54.98V51.117h7.262v2.199h-5.109v2.305h4.748v2.191h-4.748v2.879h5.282V62.891L62.415,62.891z
			 M55.23,62.641h6.935v-1.699h-5.282v-3.379h4.748v-1.691h-4.748v-2.805h5.109v-1.699H55.23V62.641L55.23,62.641z"/>
	</g>
</g>
</svg>
