<?xml version="1.0" encoding="utf-8"?>
<!-- Generator: Adobe Illustrator 14.0.0, SVG Export Plug-In . SVG Version: 6.00 Build 43363)  -->
<!DOCTYPE svg PUBLIC "-//W3C//DTD SVG 1.1//EN" "http://www.w3.org/Graphics/SVG/1.1/DTD/svg11.dtd">
<svg version="1.1" id="Calque_1" xmlns="http://www.w3.org/2000/svg" xmlns:xlink="http://www.w3.org/1999/xlink" x="0px" y="0px"
	 width="70px" height="80px" viewBox="0 0 70 80" enable-background="new 0 0 70 80" xml:space="preserve">
<g>
	<path fill="#2C2B2C" d="M69.317,73.807c0,3.254-2.639,5.894-5.895,5.894H9.342c-3.255,0-5.894-2.64-5.894-5.894V8.4
		c0-3.255,2.639-5.893,5.894-5.893h54.082c3.256,0,5.895,2.637,5.895,5.893L69.317,73.807L69.317,73.807z"/>
	<path fill="#E7F0D9" stroke="#8398A0" d="M67.521,72.427c0,3.257-2.64,5.896-5.895,5.896H7.546c-3.255,0-5.893-2.639-5.893-5.896
		V7.022c0-3.255,2.638-5.893,5.893-5.893h54.082c3.255,0,5.895,2.638,5.895,5.893L67.521,72.427L67.521,72.427z"/>
</g>
<g>
	<g>
		<path stroke="#FFFFFF" stroke-width="0.75" d="M43.397,24.414l-6.789-6.789c-0.063-0.063-0.132-0.12-0.202-0.173l1.202-1.267
			c0.062-0.062,0.119-0.126,0.173-0.194c1.598,0.602,3.47,0.264,4.752-1.02c0.936-0.936,1.408-2.23,1.294-3.551
			c-0.012-0.15-0.111-0.279-0.251-0.331c-0.142-0.051-0.301-0.016-0.407,0.089l-2.176,2.176l-2.202-0.556l-0.625-2.273l2.176-2.175
			c0.106-0.106,0.142-0.265,0.09-0.406C40.38,7.803,40.25,7.706,40.1,7.693c-1.32-0.114-2.616,0.358-3.552,1.294
			c-1.283,1.281-1.621,3.153-1.021,4.749c-0.064,0.055-0.131,0.114-0.194,0.178l-1.767,1.699l-3.25-3.25
			c-0.041-0.04-0.084-0.076-0.128-0.109c0.038-0.067,0.075-0.136,0.11-0.208c0.686,0.132,1.941-1.205,3.007-2.269l-3.104-3.104
			c-1.389,1.388-2.402,2.32-2.271,3.006c-0.315,0.155-0.6,0.345-0.8,0.546l-0.438,0.437c-0.284,0.284-0.455,0.638-0.516,1.006
			c-0.042,0.048-0.086,0.099-0.129,0.154l-0.162,0.205c-0.005,0.005-0.019,0.025-0.023,0.031l-0.147,0.207
			c-0.092,0.124-0.174,0.257-0.251,0.386c-0.028,0.048-0.059,0.095-0.089,0.144c-0.004,0.008-0.008,0.016-0.013,0.024l-0.065,0.124
			c-0.08,0.148-0.161,0.304-0.232,0.472l-0.012,0.027c-0.083,0.197-0.169,0.401-0.229,0.619l-0.029,0.093
			c-0.024,0.077-0.049,0.154-0.07,0.246l-0.061,0.299c-0.045,0.187-0.061,0.371-0.074,0.534l-0.008,0.108
			c-0.022,0.169-0.015,0.329-0.01,0.47c0.002,0.047,0.003,0.094,0.005,0.156c0.001,0.026,0.001,0.052,0.002,0.077
			c0.001,0.063,0.003,0.134,0.016,0.209l0.037,0.242c0.009,0.047,0.015,0.092,0.021,0.136c0.014,0.099,0.029,0.2,0.059,0.297
			l0.159,0.551c0.049,0.167,0.208,0.278,0.382,0.266c0.092-0.006,0.175-0.047,0.236-0.108c0.056-0.055,0.094-0.128,0.105-0.209
			l0.082-0.561c0.006-0.044,0.026-0.11,0.045-0.179c0.014-0.047,0.028-0.096,0.04-0.138l0.058-0.209
			c0.007-0.028,0.021-0.056,0.034-0.084c0.012-0.026,0.023-0.053,0.033-0.08c0.02-0.044,0.038-0.089,0.058-0.134
			c0.036-0.09,0.069-0.174,0.121-0.257c0.024-0.038,0.044-0.076,0.065-0.114c0.054-0.098,0.105-0.189,0.167-0.265
			c0.004-0.004,0.008-0.009,0.012-0.015l0.138-0.19c0.028-0.036,0.059-0.07,0.09-0.104c0.021-0.024,0.043-0.048,0.072-0.08
			c0.082-0.098,0.177-0.184,0.27-0.267l0.049-0.044c0.069-0.063,0.148-0.124,0.23-0.187c0.035-0.025,0.069-0.05,0.101-0.076
			c0.042-0.027,0.083-0.054,0.124-0.081c0.074-0.051,0.14-0.095,0.215-0.134l0.163-0.093l0.165-0.082
			c0.059-0.029,0.114-0.052,0.168-0.074c0.03-0.012,0.062-0.025,0.09-0.037c0.029-0.01,0.057-0.021,0.083-0.032
			c0.036-0.013,0.066-0.025,0.108-0.036l0.044-0.01c0.049,0.079,0.106,0.154,0.175,0.222l3.214,3.215l-6.861,6.59
			c-0.003,0.002-0.005,0.005-0.007,0.008c-0.854,0.854-0.994,2.104-0.14,2.958c0.854,0.854,2.026,0.635,2.88-0.218
			c0.004-0.004,0.007-0.008,0.01-0.011l6.053-6.374c0.036,0.042,0.071,0.084,0.11,0.124l6.786,6.789
			c0.762,0.759,1.995,0.759,2.756,0C44.156,26.408,44.156,25.174,43.397,24.414z M26.795,25.937c-0.314,0.315-0.826,0.315-1.14,0
			c-0.314-0.314-0.314-0.825,0-1.139c0.314-0.313,0.825-0.313,1.14,0C27.109,25.113,27.109,25.623,26.795,25.937z"/>
	</g>
	<g>
		<path d="M10.285,52.604h10.304v-3.881h-5.726V43.42h4.936v-3.744h-4.936v-5.361h5.688v-3.868H10.285V52.604L10.285,52.604z"/>
	</g>
	<g>
		<path d="M38.077,52.604h4.932V30.445h-4.576v10.363l0.198,2.458l-0.915,0.315l-6.919-13.137h-4.842v22.158h4.579v-9.76
			l-0.146-2.858l0.916-0.297L38.077,52.604L38.077,52.604z"/>
	</g>
	<g>
		<path d="M51.221,52.604h4.65V34.681h3.836v-4.233H47.422v4.233h3.8V52.604L51.221,52.604z"/>
	</g>
	<g>
		<path d="M10.114,57.051h4.801v8.226c0,1.277,0.06,2.109,0.179,2.496c0.212,0.67,0.719,1.188,1.521,1.554
			c0.802,0.366,1.859,0.549,3.171,0.549c1.113,0,2.021-0.129,2.724-0.388c0.702-0.26,1.183-0.618,1.441-1.078
			c0.258-0.459,0.388-1.444,0.388-2.957v-8.401h4.801v7.977c0,2.037-0.208,3.51-0.625,4.418c-0.417,0.908-1.356,1.644-2.817,2.207
			c-1.461,0.563-3.389,0.844-5.783,0.844c-2.487,0-4.428-0.232-5.823-0.699c-1.396-0.466-2.407-1.122-3.036-1.968
			c-0.628-0.846-0.942-2.405-0.942-4.678V57.051z"/>
		<path d="M34.138,72.237V57.051h7.201l4.337,10.369l4.302-10.369h7.234v15.187h-4.484V60.272l-4.754,11.965h-4.632l-4.719-11.965
			v11.965H34.138z"/>
	</g>
</g>
<circle fill="#FFFFFF" cx="20.705" cy="36.853" r="2.315"/>
</svg>
