<?xml version="1.0" encoding="utf-8"?>
<!-- Generator: Adobe Illustrator 14.0.0, SVG Export Plug-In . SVG Version: 6.00 Build 43363)  -->
<!DOCTYPE svg PUBLIC "-//W3C//DTD SVG 1.1//EN" "http://www.w3.org/Graphics/SVG/1.1/DTD/svg11.dtd">
<svg version="1.1" id="Calque_1" xmlns="http://www.w3.org/2000/svg" xmlns:xlink="http://www.w3.org/1999/xlink" x="0px" y="0px"
	 width="70px" height="80px" viewBox="0 0 70 80" enable-background="new 0 0 70 80" xml:space="preserve">
<g>
	<path fill="#2C2B2C" d="M69.063,73.807c0,3.254-2.64,5.895-5.895,5.895H9.086c-3.254,0-5.895-2.641-5.895-5.895V8.4
		c0-3.255,2.641-5.893,5.895-5.893H63.17c3.255,0,5.895,2.637,5.895,5.893L69.063,73.807L69.063,73.807z"/>
	<path fill="#E7F1E3" stroke="#8398A0" d="M67.27,72.428c0,3.256-2.643,5.895-5.896,5.895H7.29c-3.255,0-5.894-2.639-5.894-5.895
		V7.022c0-3.255,2.639-5.893,5.894-5.893h54.084c3.254,0,5.896,2.638,5.896,5.893V72.428L67.27,72.428z"/>
</g>
<g>
	<path fill="#1A171B" stroke="#FFFFFF" d="M16.921,19.903h5.07v11.414c0,2.386-0.565,4.284-1.695,5.693
		c-1.437,1.789-3.416,2.684-5.937,2.684c-0.768,0-1.636-0.163-2.603-0.488v-4.785c0.85,0.398,1.568,0.597,2.155,0.597
		c2.006,0,3.009-1.478,3.009-4.433V19.903z M19.307,13.871c0.687,0,1.281,0.242,1.783,0.725c0.501,0.483,0.752,1.055,0.752,1.715
		c0,0.705-0.237,1.283-0.711,1.735c-0.475,0.452-1.083,0.678-1.823,0.678c-0.741,0-1.349-0.226-1.823-0.678
		c-0.475-0.452-0.712-1.03-0.712-1.735c0-0.66,0.251-1.231,0.752-1.715S18.62,13.871,19.307,13.871z"/>
	<path fill="#1A171B" stroke="#FFFFFF" d="M31.371,19.619c1.916,0,3.559,0.689,4.927,2.067c1.369,1.378,2.054,3.03,2.054,4.955
		c0,1.952-0.693,3.615-2.08,4.988c-1.388,1.374-3.062,2.061-5.023,2.061S27.611,33,26.22,31.622
		c-1.392-1.378-2.087-3.039-2.087-4.982c0-1.979,0.696-3.644,2.087-4.995S29.328,19.619,31.371,19.619z M31.235,24.621
		c-0.542,0-1.003,0.196-1.383,0.589s-0.569,0.875-0.569,1.444c0,0.561,0.192,1.04,0.576,1.437c0.384,0.397,0.842,0.596,1.376,0.596
		c0.542,0,1.005-0.199,1.389-0.596s0.576-0.876,0.576-1.437c0-0.569-0.19-1.051-0.569-1.444S31.786,24.621,31.235,24.621z"/>
	<path fill="#1A171B" stroke="#FFFFFF" d="M45.238,14.915V25.99c0,1.798,0.646,2.697,1.938,2.697c0.551,0,1.019-0.188,1.403-0.563
		c0.384-0.375,0.576-0.829,0.576-1.362c0-0.551-0.182-1.014-0.543-1.389s-0.804-0.563-1.328-0.563c-0.371,0-0.795,0.163-1.274,0.488
		v-5.585c0.597-0.054,1.049-0.082,1.355-0.082c1.907,0,3.54,0.687,4.9,2.061c1.36,1.374,2.04,3.028,2.04,4.961
		c0,1.979-0.691,3.646-2.073,5.002c-1.383,1.355-3.082,2.033-5.098,2.033c-1.012,0-1.999-0.221-2.962-0.664
		c-0.962-0.443-1.755-1.039-2.379-1.79c-1.084-1.301-1.626-2.986-1.626-5.056V14.915H45.238z"/>
	<path fill="#1A171B" stroke="#FFFFFF" d="M4.748,44.093h5.07v7.279c0,0.569,0.059,0.965,0.176,1.187
		c0.117,0.222,0.33,0.332,0.637,0.332c0.569,0,0.854-0.506,0.854-1.519v-7.279h5.069v7.279c0,0.569,0.061,0.965,0.183,1.187
		s0.336,0.332,0.644,0.332c0.56,0,0.84-0.506,0.84-1.519v-7.279h5.07v8.323c0,1.519-0.511,2.809-1.532,3.87
		c-1.021,1.062-2.259,1.593-3.714,1.593c-1.5,0-2.847-0.633-4.04-1.897c-1.319,1.265-2.648,1.897-3.985,1.897
		c-1.69,0-3.045-0.614-4.066-1.844c-0.805-0.967-1.207-2.363-1.207-4.188V44.093z"/>
	<path fill="#1A171B" stroke="#FFFFFF" d="M33.771,52.349v5.245c-0.416,0.072-0.795,0.108-1.139,0.108
		c-2.033,0-3.728-0.668-5.083-2.006c-1.355-1.337-2.033-3.014-2.033-5.029c0-1.961,0.685-3.623,2.054-4.988
		c1.369-1.364,3.034-2.047,4.995-2.047c2.187,0,3.911,0.64,5.171,1.918c1.261,1.279,1.891,3.025,1.891,5.239v6.629h-5.069v-6.263
		c0-0.714-0.174-1.283-0.522-1.708c-0.348-0.425-0.815-0.637-1.403-0.637c-0.533,0-0.994,0.194-1.383,0.583s-0.583,0.85-0.583,1.382
		c0,0.561,0.176,1.021,0.528,1.383s0.8,0.542,1.342,0.542C32.979,52.7,33.391,52.583,33.771,52.349z"/>
	<path fill="#1A171B" stroke="#FFFFFF" d="M49.996,43.768v5.422c-0.353-0.198-0.674-0.298-0.963-0.298
		c-0.922,0-1.383,0.705-1.383,2.114v6.412h-5.069V50.03c0-1.952,0.533-3.509,1.6-4.67s2.489-1.741,4.27-1.741
		C48.848,43.619,49.363,43.669,49.996,43.768z"/>
	<path fill="#1A171B" stroke="#FFFFFF" d="M64.771,51.48h-7.686c-0.118-0.389-0.177-0.745-0.177-1.07
		c0-0.452,0.082-0.895,0.244-1.329h2.576c-0.182-1.003-0.746-1.504-1.695-1.504c-0.632,0-1.147,0.269-1.545,0.806
		c-0.397,0.538-0.597,1.228-0.597,2.067c0,0.877,0.192,1.586,0.576,2.129c0.384,0.542,0.888,0.813,1.512,0.813
		c0.506,0,0.994-0.253,1.464-0.759l2.888,3.471c-1.347,1.057-2.843,1.586-4.487,1.586c-2.006,0-3.691-0.674-5.056-2.021
		c-1.365-1.346-2.047-3.014-2.047-5.002c0-1.979,0.688-3.65,2.066-5.016c1.378-1.363,3.07-2.046,5.077-2.046
		c1.961,0,3.607,0.666,4.94,1.999s2,2.976,2,4.928C64.826,50.73,64.808,51.047,64.771,51.48z"/>
</g>
</svg>
