<?xml version="1.0" encoding="utf-8"?>
<!-- Generator: Adobe Illustrator 14.0.0, SVG Export Plug-In . SVG Version: 6.00 Build 43363)  -->
<!DOCTYPE svg PUBLIC "-//W3C//DTD SVG 1.1//EN" "http://www.w3.org/Graphics/SVG/1.1/DTD/svg11.dtd">
<svg version="1.1" id="Calque_1" xmlns="http://www.w3.org/2000/svg" xmlns:xlink="http://www.w3.org/1999/xlink" x="0px" y="0px"
	 width="70px" height="80px" viewBox="0 0 70 80" enable-background="new 0 0 70 80" xml:space="preserve">
<g>
	<path fill="#2C2B2C" d="M69.17,73.807c0,3.254-2.639,5.893-5.894,5.893H9.192c-3.255,0-5.894-2.639-5.894-5.893V8.4
		c0-3.255,2.639-5.893,5.894-5.893h54.084c3.255,0,5.894,2.637,5.894,5.893V73.807z"/>
	<path fill="#E7F1F7" stroke="#8398A0" d="M67.374,72.427c0,3.256-2.639,5.895-5.893,5.895H7.396c-3.255,0-5.893-2.639-5.893-5.895
		V7.022c0-3.255,2.638-5.893,5.893-5.893h54.086c3.254,0,5.893,2.638,5.893,5.893V72.427z"/>
</g>
<rect x="12.989" y="9.401" fill="#FFFFFF" stroke="#8398A0" width="42.891" height="30.325"/>
<g>
	<g>
		<path d="M27.829,47.532l-2.364,7.266H24.69l-2.276-7.266h-3.081l-2.249,7.348h-0.773l-2.479-7.348h-3.131l4.24,11.203h3.202
			l1.702-4.953c0.102-0.303,0.272-0.928,0.508-1.852l0.094-0.37h0.826l0.091,0.375c0.13,0.539,0.296,1.104,0.493,1.684l1.718,5.116
			h3.257l4.24-11.203H27.829z"/>
		<polygon points="38.008,53.916 41.885,53.916 41.885,52.369 38.008,52.369 38.008,49.142 42.475,49.142 42.475,47.532 
			34.622,47.532 34.622,58.735 42.504,58.735 42.504,57.116 38.008,57.116 		"/>
		<path d="M57.998,55.712c0-0.394,0-1.588-2.439-2.197l-1.485-0.373l1.424-0.561c1.439-0.566,2.17-1.282,2.17-2.127
			c0-0.809-0.477-1.471-1.452-2.022c-1.055-0.598-2.85-0.899-5.336-0.899h-3.947v11.203h5.215c1.81,0,3.277-0.305,4.359-0.906
			C57.51,57.272,57.998,56.581,57.998,55.712z M50.315,48.88l0.497,0.006c1.092,0.013,1.88,0.128,2.409,0.348
			c0.647,0.271,1.002,0.799,1.002,1.485c0,1.146-1.147,1.742-3.409,1.778l-0.499,0.007V48.88z M53.464,56.989
			c-0.612,0.226-1.479,0.342-2.652,0.355l-0.496,0.005v-3.625h0.853c2.286,0,3.445,0.604,3.445,1.796
			C54.613,55.911,54.464,56.621,53.464,56.989z"/>
		<path d="M20.027,62.957l-0.727,1.76c-0.201,0.479-0.393,0.981-0.57,1.491l-0.68,2.03l-0.228-0.718
			c-0.403-1.271-0.961-2.805-1.659-4.563h-4.763l-1.815,8.016h3.327l1.147-6.446l2.885,6.446h2.421l2.758-6.447l1.195,6.447h3.499
			l-1.917-8.016H20.027z"/>
		<path fill="none" d="M36.026,64.593l-0.049-0.184h-0.431l-0.049,0.181c-0.315,1.157-0.766,2.36-1.337,3.574l-0.165,0.351h3.548
			l-0.168-0.353C36.778,66.917,36.324,65.716,36.026,64.593z"/>
		<rect x="45.268" y="62.957" width="3.563" height="8.016"/>
		<polygon points="56.847,62.957 53.283,62.957 53.283,70.973 60.058,70.973 60.058,69.494 56.847,69.494 		"/>
		<g>
			<path d="M37.946,62.957h-4.263l-4.463,8.016h3.566l0.709-1.421h4.589l0.683,1.421h3.643L37.946,62.957z M33.995,68.515
				l0.165-0.351c0.571-1.214,1.021-2.417,1.337-3.574l0.049-0.181h0.431l0.049,0.184c0.298,1.123,0.752,2.324,1.349,3.569
				l0.168,0.353H33.995z"/>
		</g>
	</g>
	<g>
		<g>
			<path d="M55.874,7.707H12.835c-0.864,0-1.565,0.7-1.565,1.565v30.433c0,0.864,0.702,1.562,1.565,1.562h43.039
				c0.864,0,1.565-0.698,1.565-1.562V9.272C57.439,8.407,56.738,7.707,55.874,7.707z M54.309,38.14H14.401V10.838h39.908V38.14z"/>
			<path d="M18.504,18.213l15.029,9.26c0.252,0.155,0.537,0.232,0.822,0.232c0.284,0,0.569-0.077,0.82-0.232l15.031-9.26
				c0.736-0.455,0.966-1.419,0.512-2.155c-0.453-0.735-1.419-0.964-2.154-0.51l-14.208,8.753l-14.209-8.753
				c-0.736-0.454-1.7-0.225-2.153,0.51C17.538,16.794,17.768,17.758,18.504,18.213z"/>
		</g>
	</g>
</g>
</svg>
